<svg xmlns="http://www.w3.org/2000/svg" width="900" height="240" viewBox="0 0 900 240" font-family="Helvetica, Arial, sans-serif">
  <style>
    .title { font-size: 20px; font-weight: bold; }
    .phase { fill:#0b5d4b; stroke:#083d32; stroke-width:1; }
    .phase-text { fill:#fff; font-size:14px; font-weight:600; }
    .arrow { stroke:#333; stroke-width:2; marker-end:url(#arrowhead); }
    .box { fill:#f4f4f4; stroke:#666; stroke-width:1; }
    .box-title { font-size:12px; font-weight:600; }
  </style>
  <defs>
    <marker id="arrowhead" markerWidth="8" markerHeight="8" refX="6" refY="4" orient="auto" fill="#333">
      <path d="M0,0 L8,4 L0,8 Z" />
    </marker>
  </defs>
  <text x="450" y="28" text-anchor="middle" class="title">Ciclo (Placeholder)</text>

  <g transform="translate(40,60)">
    <rect class="box" x="0" y="0" width="120" height="60" rx="6"/>
    <text class="box-title" x="60" y="35" text-anchor="middle">Carregamento</text>
  </g>
  <g transform="translate(200,60)">
    <rect class="box" x="0" y="0" width="140" height="60" rx="6"/>
    <text class="box-title" x="70" y="28" text-anchor="middle">Transporte</text>
    <text class="box-title" x="70" y="48" text-anchor="middle">Carregado</text>
  </g>
  <g transform="translate(380,60)">
    <rect class="box" x="0" y="0" width="120" height="60" rx="6"/>
    <text class="box-title" x="60" y="35" text-anchor="middle">Descarga</text>
  </g>
  <g transform="translate(540,60)">
    <rect class="box" x="0" y="0" width="120" height="60" rx="6"/>
    <text class="box-title" x="60" y="28" text-anchor="middle">Retorno</text>
    <text class="box-title" x="60" y="48" text-anchor="middle">Vazio</text>
  </g>
  <g transform="translate(700,60)">
    <rect class="box" x="0" y="0" width="120" height="60" rx="6"/>
    <text class="box-title" x="60" y="35" text-anchor="middle">Fila</text>
  </g>

  <line class="arrow" x1="160" y1="90" x2="200" y2="90"/>
  <line class="arrow" x1="340" y1="90" x2="380" y2="90"/>
  <line class="arrow" x1="500" y1="90" x2="540" y2="90"/>
  <line class="arrow" x1="660" y1="90" x2="700" y2="90"/>
  <path class="arrow" d="M820,90 C840,90 840,150 700,150 C520,150 380,150 160,150 C40,150 40,90 40,90"/>
  <text x="450" y="185" text-anchor="middle" font-size="11" fill="#555">Fluxo simplificado placeholder — substitua por figura oficial depois</text>
</svg>
